<?xml version="1.0" encoding="UTF-8" standalone="no"?>
<svg
   xmlns:dc="http://purl.org/dc/elements/1.1/"
   xmlns:cc="http://creativecommons.org/ns#"
   xmlns:rdf="http://www.w3.org/1999/02/22-rdf-syntax-ns#"
   xmlns:svg="http://www.w3.org/2000/svg"
   xmlns="http://www.w3.org/2000/svg"
   version="1.0"
   width="416.000000pt"
   height="416.000000pt"
   viewBox="0 0 416.000000 416.000000"
   preserveAspectRatio="xMidYMid meet"
   id="svg50">
  <metadata
     id="metadata56">
    <rdf:RDF>
      <cc:Work
         rdf:about="">
        <dc:format>image/svg+xml</dc:format>
        <dc:type
           rdf:resource="http://purl.org/dc/dcmitype/StillImage" />
      </cc:Work>
    </rdf:RDF>
  </metadata>
  <defs
     id="defs54" />
  <g
     transform="translate(0.000000,416.000000) scale(0.100000,-0.100000)"
     fill="#000000"
     stroke="none"
     id="g48">
    <path
       d="M1139 3347 c-19 -13 -39 -38 -46 -57 -17 -50 -17 -1780 0 -1830 7 -19 27 -44 46 -57 l34 -23 906 0 c699 0 911 3 930 13 13 6 34 25 45 40 21 28 21 32 24 921 2 700 0 902 -10 932 -8 24 -26 47 -47 61 l-34 23 -907 0 -907 0 -34 -23z m1851 -37 c10 -5 23 -24 29 -41 16 -45 16 -1743 0 -1788 -6 -17 -19 -36 -29 -41 -12 -6 -349 -10 -914 -10 -883 0 -896 0 -916 20 -20 20 -20 33 -20 925 0 892 0 905 20 925 20 20 33 20 916 20 565 0 902 -4 914 -10z"
       id="path2" />
    <path
       d="M1295 3150 c-4 -6 -1 -17 5 -25 11 -13 120 -15 780 -15 660 0 769 2 780 15 6 8 9 19 5 25 -4 7 -255 10 -785 10 -530 0 -781 -3 -785 -10z"
       id="path4" />
    <path
       d="M1789 2853 c-11 -12 -14 -59 -14 -198 0 -139 3 -186 14 -198 12 -15 45 -17 292 -17 276 0 278 0 293 22 13 18 16 55 16 193 0 138 -3 175 -16 193 -15 22 -17 22 -293 22 -247 0 -280 -2 -292 -17z m541 -198 l0 -165 -250 0 -250 0 0 165 0 165 250 0 250 0 0 -165z"
       id="path6" />
    <path
       d="M1408 2747 c-59 -34 -110 -67 -112 -74 -12 -29 12 -52 114 -111 60 -35 114 -61 120 -57 29 18 7 45 -76 92 -48 27 -86 53 -86 58 0 5 37 31 83 57 65 37 84 53 84 70 0 12 -4 23 -10 24 -5 2 -58 -24 -117 -59z"
       id="path8" />
    <path
       d="M2600 2795 c-6 -8 -9 -19 -6 -24 4 -5 47 -33 96 -61 50 -28 90 -53 90 -55 0 -2 -40 -27 -90 -55 -49 -28 -92 -56 -96 -62 -3 -5 0 -17 9 -25 14 -14 26 -9 124 49 98 58 108 66 108 93 0 27 -10 35 -105 92 -58 34 -108 63 -111 63 -4 0 -12 -7 -19 -15z"
       id="path10" />
    <path
       d="M1300 2301 c-6 -12 -10 -102 -10 -223 0 -168 3 -207 16 -226 15 -21 21 -22 194 -22 173 0 179 1 194 22 13 19 16 58 16 226 0 121 -4 211 -10 223 -10 18 -23 19 -200 19 -177 0 -190 -1 -200 -19z m358 -223 l-3 -193 -153 0 -153 0 -2 193 -2 192 158 0 157 0 -2 -192z"
       id="path12" />
    <path
       d="M2460 2301 c-5 -11 -10 -62 -10 -113 0 -143 -7 -138 206 -138 219 0 214 -3 214 136 0 143 14 134 -210 134 -177 0 -190 -1 -200 -19z m358 -113 l-3 -83 -155 0 -155 0 -3 83 -3 82 161 0 161 0 -3 -82z"
       id="path14" />
    <path
       d="M1778 2258 c-14 -37 -3 -38 302 -38 230 0 299 3 303 13 12 36 1 37 -303 37 -229 0 -299 -3 -302 -12z"
       id="path16" />
    <path
       d="M1787 2083 c-12 -11 -8 -43 6 -43 256 -4 583 2 590 9 7 7 6 15 -3 26 -11 13 -53 15 -300 15 -157 0 -290 -3 -293 -7z"
       id="path18" />
    <path
       d="M2466 1974 c-21 -20 -21 -93 0 -122 15 -21 21 -22 194 -22 173 0 179 1 194 22 21 29 21 102 0 122 -13 13 -45 16 -194 16 -149 0 -181 -3 -194 -16z m352 -61 l-3 -28 -155 0 -155 0 -3 28 -3 27 161 0 161 0 -3 -27z"
       id="path20" />
    <path
       d="M1777 1886 c-13 -33 14 -36 303 -36 289 0 316 3 303 36 -8 21 -598 21 -606 0z"
       id="path22" />
    <path
       d="M1298 1658 c-14 -38 -21 -38 782 -38 802 0 796 0 783 38 -4 9 -169 12 -783 12 -613 0 -779 -3 -782 -12z"
       id="path24" />
    <path
       d="M1010 685 l0 -105 70 0 c40 0 70 4 70 10 0 6 -27 10 -60 10 l-60 0 0 95 c0 57 -4 95 -10 95 -6 0 -10 -42 -10 -105z"
       id="path26" />
    <path
       d="M1205 693 c-22 -53 -41 -100 -43 -105 -9 -21 26 -5 36 17 10 21 18 25 57 25 39 0 47 -4 57 -25 6 -14 17 -25 24 -25 11 0 9 11 -5 48 -38 94 -70 162 -78 162 -4 0 -26 -44 -48 -97z m70 11 c23 -55 20 -64 -19 -64 -19 0 -37 3 -39 8 -4 7 31 92 38 92 3 0 12 -16 20 -36z"
       id="path28" />
    <path
       d="M1380 685 c0 -87 3 -105 15 -105 12 0 15 16 15 82 l0 82 61 -82 c34 -45 65 -82 70 -82 5 0 9 47 9 105 0 125 -18 143 -22 23 l-3 -83 -63 83 c-35 45 -67 82 -72 82 -6 0 -10 -45 -10 -105z"
       id="path30" />
    <path
       d="M1617 783 c-4 -3 -7 -51 -7 -105 l0 -98 56 0 c48 0 59 4 85 29 48 48 37 136 -20 166 -30 15 -102 21 -114 8z m97 -24 c76 -35 46 -159 -39 -159 l-35 0 0 85 c0 84 0 85 25 85 13 0 35 -5 49 -11z"
       id="path32" />
    <path
       d="M1830 686 c0 -89 3 -106 15 -106 13 0 15 16 13 102 -2 70 -7 103 -15 106 -10 3 -13 -22 -13 -102z"
       id="path34" />
    <path
       d="M1920 685 c0 -125 18 -143 22 -23 l3 82 60 -82 c33 -45 66 -81 73 -82 9 0 12 28 12 106 0 80 -3 105 -12 102 -8 -3 -15 -33 -18 -82 l-5 -78 -59 81 c-33 45 -63 81 -68 81 -4 0 -8 -47 -8 -105z"
       id="path36" />
    <path
       d="M2187 779 c-24 -14 -47 -62 -47 -101 0 -69 70 -119 136 -98 33 11 34 14 34 61 l0 49 -35 0 c-24 0 -35 -5 -35 -15 0 -9 10 -15 26 -15 22 0 25 -4 22 -27 -6 -52 -89 -43 -115 11 -19 40 -12 77 19 106 24 22 77 27 96 8 17 -17 28 -2 12 17 -14 17 -85 20 -113 4z"
       id="path38" />
    <path
       d="M2450 685 c0 -63 4 -105 10 -105 6 0 10 15 10 34 0 32 2 34 42 39 49 7 68 27 68 73 0 42 -30 64 -87 64 l-43 0 0 -105z m95 69 c23 -23 15 -57 -18 -72 -43 -21 -57 -10 -57 43 0 43 1 45 29 45 16 0 37 -7 46 -16z"
       id="path40" />
    <path
       d="M2631 694 c-22 -52 -41 -100 -41 -105 0 -19 21 -8 30 16 8 22 15 25 60 25 45 0 52 -3 60 -25 9 -23 30 -35 30 -17 0 16 -83 202 -90 202 -4 0 -26 -43 -49 -96z m73 3 c9 -23 16 -46 16 -50 0 -4 -18 -7 -40 -7 -22 0 -40 3 -40 7 0 16 33 93 40 93 4 0 15 -19 24 -43z"
       id="path42" />
    <path
       d="M2843 778 c-25 -12 -53 -65 -53 -100 0 -38 35 -85 73 -97 29 -10 42 -9 72 3 35 15 36 17 33 58 -3 41 -4 43 -35 43 -36 0 -46 -18 -13 -23 16 -3 20 -10 18 -30 -3 -23 -8 -27 -38 -30 -48 -4 -82 31 -82 84 0 64 67 104 124 73 27 -14 38 -1 14 17 -23 16 -81 17 -113 2z"
       id="path44" />
    <path
       d="M3020 685 l0 -105 75 0 c43 0 75 4 75 10 0 6 -28 10 -65 10 l-65 0 0 34 c0 34 1 35 48 38 26 2 47 8 47 13 0 6 -21 11 -47 13 -47 3 -48 4 -48 38 l0 34 65 0 c37 0 65 4 65 10 0 6 -32 10 -75 10 l-75 0 0 -105z"
       id="path46" />
  </g>
</svg>
